<svg width="24" height="24" xmlns="http://www.w3.org/2000/svg">
 <g>
  <path fill="#92C367" id="svg_2" d="m7.896,14.155l1.568,-0.681l-0.44,0.441c-0.141,0.141 -0.22,0.332 -0.22,0.53l0,2.935c0,0.672 0.812,0.998 1.28,0.53l1.574,-1.574l3.43,1.715c0.444,0.222 0.981,-0.041 1.073,-0.537l1.957,-10.761c0.103,-0.579 -0.467,-1.047 -1.012,-0.833l-12.716,4.977c-0.57,0.222 -0.646,1.002 -0.13,1.331l2.934,1.872c0.21,0.134 0.475,0.155 0.702,0.055zm8.506,-6.347l-1.537,8.455l-3.02,-1.509c-0.292,-0.146 -0.64,-0.085 -0.865,0.141l-0.676,0.676l0,-0.813l3.007,-3.007c0.583,-0.583 -0.073,-1.545 -0.829,-1.218l-4.817,2.09l-1.354,-0.864l10.091,-3.951z"/>
 </g>
</svg>