<svg width="24" height="24" xmlns="http://www.w3.org/2000/svg">
 <g>
  <path stroke="null" id="svg_1" d="m14.413513,11.831082l8.497394,-8.497394c0.641313,-0.641313 0.641313,-1.603282 0,-2.244595s-1.603282,-0.641313 -2.244595,0l-8.497394,8.497394l-8.497394,-8.497394c-0.641313,-0.641313 -1.603282,-0.641313 -2.244595,0s-0.641313,1.603282 0,2.244595l8.497394,8.497394l-8.497394,8.497394c-0.641313,0.641313 -0.641313,1.603282 0,2.244595c0.320656,0.320656 0.801641,0.480985 1.122297,0.480985s0.801641,-0.160328 1.122297,-0.480985l8.497394,-8.497394l8.497394,8.497394c0.320656,0.320656 0.801641,0.480985 1.122297,0.480985s0.801641,-0.160328 1.122297,-0.480985c0.641313,-0.641313 0.641313,-1.603282 0,-2.244595l-8.497394,-8.497394z" fill="#527532"/>
 </g>
</svg>