<?xml version="1.0" encoding="iso-8859-1"?>
<!-- Generator: Adobe Illustrator 19.0.0, SVG Export Plug-In . SVG Version: 6.00 Build 0)  -->
<svg class="logo-svg" version="1.1" id="Capa_1" xmlns="http://www.w3.org/2000/svg" xmlns:xlink="http://www.w3.org/1999/xlink" x="0px" y="0px"
	 viewBox="0 0 512 512" fill="#527532" style="enable-background:new 0 0 512 512;" xml:space="preserve">
<g>
	<g>
		<path d="M392.533,93.867h-197.47c0,0,0,0-0.009,0c-49.169,0-94.566,28.715-115.635,73.131l-29.884,62.933
			C42.112,245.76,26.018,255.991,8.533,256C3.814,256,0,259.823,0,264.533V307.2c0,4.25,3.123,7.851,7.322,8.448l109.227,15.616
			c1.655,0.239,2.91,1.69,2.918,3.328V409.6c0,4.719,3.823,8.533,8.533,8.533h34.133c4.07,0,7.569-2.876,8.363-6.861l13.995-70.033
			c0.375-1.843,2.185-3.055,4.762-2.415c29.295,12.86,60.348,19.439,92.348,19.575c87.859,0,124.006-35.132,125.5-36.634
			l-12.032-12.1c-0.324,0.316-33.348,31.667-113.434,31.667c-29.611-0.119-58.385-6.221-85.504-18.133
			c-1.348-0.589-2.756-1.041-4.207-1.34c-11.102-2.27-21.905,4.915-24.166,16.009l-12.621,63.198h-18.603v-66.509
			c-0.043-10.069-7.595-18.756-17.57-20.19L17.067,299.802v-27.324c20.659-2.893,38.912-16.102,47.898-35.251l29.867-62.899
			c18.278-38.511,57.609-63.394,100.233-63.394h0.009h197.461c56.465,0,102.4,45.935,102.4,102.4H512
			C512,147.456,458.411,93.867,392.533,93.867z"/>
	</g>
</g>
<g>
	<g>
		<path d="M105.054,134.187l11.759-12.373c-12.134-11.529-28.015-18.415-45.218-19.413H34.133c-4.71,0-8.533,3.823-8.533,8.533
			c0,20.719,3.465,46.148,30.49,58.923c0.358,0.162,0.734,0.307,1.109,0.427l27.392,8.533l5.069-16.29l-26.795-8.354
			c-12.689-6.187-18.62-16.273-19.917-34.705L71.1,119.45C83.78,120.201,95.838,125.431,105.054,134.187z"/>
	</g>
</g>
<g>
	<g>
		<rect x="93.867" y="238.933" width="17.067" height="17.067"/>
	</g>
</g>
<g>
	<g>
		<path d="M213.316,175.437c-17.783,16.998-52.693,20.156-72.661,7.262l20.07-20.395c10.965-10.931,25.532-17.05,41.011-17.229
			l-0.196-17.067c-19.951,0.23-38.724,8.115-52.915,22.255l-26.709,27.136c-1.604,1.638-2.492,3.849-2.449,6.144
			s1.007,4.471,2.679,6.05c1.724,1.621,3.439,3.14,5.316,4.625c11.708,9.096,27.46,13.525,43.529,13.525
			c19.942,0,40.363-6.827,54.127-19.977L213.316,175.437z"/>
	</g>
</g>
<g>
	<g>
		<path d="M494.933,213.333c0,4.702-3.823,8.533-8.533,8.533s-8.533-3.831-8.533-8.533v-17.067c0-14.114-11.486-25.6-25.6-25.6
			c-14.114,0-25.6,11.486-25.6,25.6v8.533h17.067v-8.533c0-4.702,3.823-8.533,8.533-8.533c4.71,0,8.533,3.831,8.533,8.533v17.067
			c0,14.114,11.486,25.6,25.6,25.6s25.6-11.486,25.6-25.6H494.933z"/>
	</g>
</g>
<g>
	<g>
		<path d="M502.05,281.668c6.451-20.608,9.788-42.035,9.95-63.727v-4.608h-17.067v4.548c-0.145,19.951-3.226,39.697-9.233,58.931
			c-1.195,4.233-2.202,8.098-2.756,11.187c-3.669,21.171,0.009,42.769,10.342,61.44l-36.881,51.644l-23.612,0.043l26.88-47.019
			c1.911-3.337,1.348-7.543-1.374-10.266l-6.767-6.767c-11.281-10.897-23.953-20.241-37.811-27.87
			c-17.178-9.011-28.305-25.941-29.747-45.303l-17.016,1.263c1.886,25.276,16.401,47.386,38.69,59.068
			c12.39,6.818,23.834,15.266,33.929,25.011l2.048,2.048l-23.697,41.446c-1.417,2.551-2.167,5.427-2.167,8.294
			c-0.017,9.421,7.629,17.084,17.05,17.101H460.8c2.756,0,5.342-1.331,6.938-3.576l42.667-59.733
			c2.022-2.833,2.125-6.605,0.256-9.54c-10.308-16.162-14.182-35.473-10.914-54.315C500.215,288.367,501.103,285.064,502.05,281.668
			z"/>
	</g>
</g>
<g>
</g>
<g>
</g>
<g>
</g>
<g>
</g>
<g>
</g>
<g>
</g>
<g>
</g>
<g>
</g>
<g>
</g>
<g>
</g>
<g>
</g>
<g>
</g>
<g>
</g>
<g>
</g>
<g>
</g>
</svg>
