<svg class="share-icon" width="24" height="24" xmlns="http://www.w3.org/2000/svg">
 <g>
  <path fill="#92C367" stroke="null" id="svg_2" d="m7.50483,14.315052l2.056497,-0.89316l-0.577078,0.57839c-0.184927,0.184927 -0.288539,0.435432 -0.288539,0.695117l0,3.849375c0,0.881356 1.064972,1.308919 1.678773,0.695117l2.064367,-2.064367l4.498588,2.249294c0.582325,0.291162 1.286622,-0.053773 1.407284,-0.704298l2.566687,-14.1135c0.135089,-0.759383 -0.61249,-1.373184 -1.32728,-1.092514l-16.677564,6.527543c-0.747579,0.291162 -0.847256,1.314165 -0.1705,1.745662l3.848063,2.455206c0.275424,0.175747 0.622982,0.203289 0.920702,0.072135zm11.155974,-8.324355l-2.01584,11.089085l-3.960856,-1.979116c-0.38297,-0.191485 -0.839387,-0.111481 -1.134484,0.184927l-0.886602,0.886602l0,-1.066283l3.943806,-3.943806c0.764629,-0.764629 -0.095743,-2.026332 -1.087268,-1.597458l-6.317696,2.741122l-1.775827,-1.133172l13.234767,-5.181901z"/>
 </g>
</svg>